# xmcd CD database file
#
# Track frame offsets:
#	150
#	21870
#	44700
#	60701
#	80643
#	101057
#	131272
#	155149
#	172006
#	189021
#	211850
#	228053
#	250904
#	268621
#
# Disc length: 3784 seconds
#
# Revision: 1
# Processed by: cddbd v1.5.2PL0 Copyright (c) Steve Scherf et al.
# Submitted via: CDex 1.70beta3
#
DISCID=bc0ec60e
DTITLE=dreamshooter - LinKs!
DYEAR=2004
DGENRE=Doujin
TTITLE0=ためいき×鳥の詩 - 羽音(お好み焼きmix)
TTITLE1=WHITE ALBUM×小さな手のひら - I.c.e(efs-groove.ver)
TTITLE2=日だまりの中で×夏時間 - 夏時間を陽だまりの中で
TTITLE3=WHITE ALBUM×LastRegrets - winter beat again!!
TTITLE4=子守唄～ユカウラ～×てんとう虫 - 於赤レンガ路地裏
TTITLE5=バトルシーン×夜想 - アカキツキ　アオキケモノ
TTITLE6=君のRiddle×凍土高原 - BB
TTITLE7=哀吟×存在 - bravely!
TTITLE8=一触即発×馬鹿ふたり - バカなふたりが一触即発
TTITLE9=月蝕×潮鳴り - 翼はないから・・・
TTITLE10=テクニカルパワー×the fox and the grapes - house is running
TTITLE11=楓×雪野原 - 二十字星
TTITLE12=永久に×存在 - 存在よ永久に
TTITLE13=運命-SADAME-×青空 - カラワレ
EXTD=YEAR: 2004
EXTT0=
EXTT1=
EXTT2=
EXTT3=
EXTT4=
EXTT5=
EXTT6=
EXTT7=
EXTT8=
EXTT9=
EXTT10=
EXTT11=
EXTT12=
EXTT13=
PLAYORDER=
